<svg width="320" height="72" viewBox="0 0 320 72" fill="none" xmlns="http://www.w3.org/2000/svg">
<path d="M0 4C0 1.79086 1.79086 0 4 0H316C318.209 0 320 1.79086 320 4V68C320 70.2091 318.209 72 316 72H4C1.79086 72 0 70.2091 0 68V4Z" fill="#4158C4" fill-opacity="0.1"/>
<rect x="72" y="40" width="120" height="8" rx="4" fill="#4158C4" fill-opacity="0.1"/>
<rect x="72" y="24" width="224" height="8" rx="4" fill="#4158C4" fill-opacity="0.1"/>
<path d="M36 26C30.48 26 26 30.48 26 36C26 41.52 30.48 46 36 46C41.52 46 46 41.52 46 36C46 30.48 41.52 26 36 26ZM34 41L29 36L30.41 34.59L34 38.17L41.59 30.58L43 32L34 41Z" fill="#4158C4" fill-opacity="0.3"/>
<path d="M36 26C30.48 26 26 30.48 26 36C26 41.52 30.48 46 36 46C41.52 46 46 41.52 46 36C46 30.48 41.52 26 36 26ZM34 41L29 36L30.41 34.59L34 38.17L41.59 30.58L43 32L34 41Z" fill="#4158C4" fill-opacity="0.3"/>
</svg>
