<svg width="280" height="280" viewBox="0 0 280 280" fill="none" xmlns="http://www.w3.org/2000/svg">
<circle opacity="0.15253" cx="140" cy="140" r="140" fill="#4158C4"/>
<g clip-path="url(#clip0)">
<path d="M116.8 123.267H163.466V129.933H116.8V123.267Z" fill="#4158C4"/>
<path d="M132.133 114.267L116.8 98.9333L123.466 92.6L132.133 101.267L156.8 76.6L163.466 83.2666L132.133 114.267Z" fill="#4158C4"/>
<path d="M97.2941 160L95.8566 168.188H102.013L101.232 172.656H95.1066L91.5754 193.688C91.5129 194.229 91.5025 194.729 91.5441 195.188C91.69 196.812 92.5754 197.625 94.2004 197.625C94.8879 197.625 95.8045 197.521 96.9504 197.312L96.5129 202.031C95.1587 202.406 93.7837 202.594 92.3879 202.594C90.1379 202.552 88.4504 201.729 87.3254 200.125C86.2004 198.5 85.7629 196.323 86.0129 193.594L89.4504 172.656H83.4816L84.2629 168.188H90.2316L91.6691 160H97.2941ZM121.608 167.562C124.442 167.604 126.869 168.375 128.89 169.875C130.911 171.375 132.4 173.448 133.358 176.094C134.338 178.719 134.671 181.594 134.358 184.719L134.296 185.406C133.9 188.698 132.921 191.677 131.358 194.344C129.796 196.99 127.775 199.052 125.296 200.531C122.817 202.01 120.098 202.708 117.14 202.625C114.327 202.583 111.9 201.812 109.858 200.312C107.838 198.812 106.358 196.771 105.421 194.188C104.483 191.604 104.15 188.76 104.421 185.656C104.733 182.156 105.681 179.01 107.265 176.219C108.848 173.427 110.879 171.271 113.358 169.75C115.858 168.208 118.608 167.479 121.608 167.562ZM110.108 185.688C109.963 187 109.963 188.365 110.108 189.781C110.317 192.24 111.046 194.198 112.296 195.656C113.567 197.115 115.254 197.875 117.358 197.938C119.233 198 120.963 197.542 122.546 196.562C124.129 195.562 125.463 194.062 126.546 192.062C127.629 190.062 128.327 187.844 128.64 185.406C128.806 183.49 128.838 181.875 128.733 180.562C128.483 178.042 127.723 176.052 126.452 174.594C125.181 173.135 123.494 172.365 121.39 172.281C118.473 172.219 115.994 173.365 113.952 175.719C111.911 178.073 110.65 181.156 110.171 184.969L110.108 185.688ZM140.673 185.031C141.089 181.594 142.037 178.49 143.517 175.719C144.996 172.948 146.819 170.875 148.985 169.5C151.152 168.125 153.537 167.469 156.142 167.531C159.912 167.615 162.808 168.99 164.829 171.656L168.079 154H173.735L165.423 202H160.267L160.86 198.375C158.194 201.292 154.902 202.708 150.985 202.625C147.86 202.542 145.371 201.323 143.517 198.969C141.662 196.594 140.662 193.417 140.517 189.438C140.454 188.208 140.506 186.74 140.673 185.031ZM146.11 188.281C146.048 191.26 146.579 193.573 147.704 195.219C148.829 196.865 150.475 197.708 152.642 197.75C155.912 197.896 158.819 196.25 161.36 192.812L164.048 177.188C162.798 174.104 160.527 172.521 157.235 172.438C155.006 172.375 153.037 173.052 151.329 174.469C149.642 175.865 148.35 177.833 147.454 180.375C146.579 182.896 146.131 185.531 146.11 188.281ZM193.612 167.562C196.445 167.604 198.873 168.375 200.893 169.875C202.914 171.375 204.404 173.448 205.362 176.094C206.341 178.719 206.675 181.594 206.362 184.719L206.3 185.406C205.904 188.698 204.925 191.677 203.362 194.344C201.8 196.99 199.779 199.052 197.3 200.531C194.82 202.01 192.102 202.708 189.143 202.625C186.331 202.583 183.904 201.812 181.862 200.312C179.841 198.812 178.362 196.771 177.425 194.188C176.487 191.604 176.154 188.76 176.425 185.656C176.737 182.156 177.685 179.01 179.268 176.219C180.852 173.427 182.883 171.271 185.362 169.75C187.862 168.208 190.612 167.479 193.612 167.562ZM182.112 185.688C181.966 187 181.966 188.365 182.112 189.781C182.32 192.24 183.05 194.198 184.3 195.656C185.57 197.115 187.258 197.875 189.362 197.938C191.237 198 192.966 197.542 194.55 196.562C196.133 195.562 197.466 194.062 198.55 192.062C199.633 190.062 200.331 187.844 200.643 185.406C200.81 183.49 200.841 181.875 200.737 180.562C200.487 178.042 199.727 176.052 198.456 174.594C197.185 173.135 195.498 172.365 193.393 172.281C190.477 172.219 187.998 173.365 185.956 175.719C183.914 178.073 182.654 181.156 182.175 184.969L182.112 185.688Z" fill="#4158C4"/>
</g>
<defs>
<clipPath id="clip0">
<rect width="152" height="144" fill="white" transform="translate(69 63)"/>
</clipPath>
</defs>
</svg>
